<svg xmlns="http://www.w3.org/2000/svg" viewBox="0 0 160 160" role="img" aria-labelledby="title">
  <title id="title">Female pigeon</title>
  <ellipse cx="78" cy="88" rx="48" ry="35" fill="#949da9"/>
  <path d="M108 70c24 1 37 14 38 30-13 4-29-3-43-16z" fill="#7a8490"/>
  <circle cx="51" cy="65" r="27" fill="#b5bec8"/>
  <path d="M27 63 8 55l18-8z" fill="#d89b48"/>
  <circle cx="42" cy="57" r="4" fill="#1d252c"/>
  <path d="M58 50c10-13 27-11 36 2-15 0-25 6-32 15z" fill="#8d6ab8"/>
  <path d="M71 83c21 5 39 1 53-11-5 22-22 34-44 34-17 0-31-7-39-19 9 2 19 1 30-4z" fill="#737f8c"/>
  <path d="M50 34c-3-8 3-16 11-17 7 4 9 13 5 20-5-5-10-6-16-3z" fill="#d13b5a"/>
  <path d="M62 119v19M92 119v19" stroke="#9b6933" stroke-width="7" stroke-linecap="round"/>
  <path d="M52 141h22M82 141h22" stroke="#9b6933" stroke-width="6" stroke-linecap="round"/>
</svg>
