<svg xmlns="http://www.w3.org/2000/svg" viewBox="0 0 160 160" role="img" aria-labelledby="title">
  <title id="title">Male pigeon</title>
  <ellipse cx="78" cy="88" rx="48" ry="35" fill="#7f8b98"/>
  <path d="M108 70c24 1 37 14 38 30-13 4-29-3-43-16z" fill="#657482"/>
  <circle cx="51" cy="65" r="27" fill="#a4afba"/>
  <path d="M27 63 8 55l18-8z" fill="#d89b48"/>
  <circle cx="42" cy="57" r="4" fill="#1d252c"/>
  <path d="M58 50c10-13 27-11 36 2-15 0-25 6-32 15z" fill="#2f8c96"/>
  <path d="M69 84c21 5 40 1 55-12-5 22-22 34-44 34-17 0-31-7-39-19 9 2 18 1 28-3z" fill="#596876"/>
  <path d="M59 77h38l-19 16z" fill="#21435e"/>
  <circle cx="69" cy="82" r="7" fill="#21435e"/>
  <circle cx="87" cy="82" r="7" fill="#21435e"/>
  <path d="M62 119v19M92 119v19" stroke="#9b6933" stroke-width="7" stroke-linecap="round"/>
  <path d="M52 141h22M82 141h22" stroke="#9b6933" stroke-width="6" stroke-linecap="round"/>
</svg>
